<svg xmlns="http://www.w3.org/2000/svg" viewBox="0 0 48 48" id="CircleChart">
  <path d="M9.17,7.76a22,22,0,0,1,29.66,0L34.57,12a15.91,15.91,0,0,0-21.14,0ZM10,24A14,14,0,1,1,24,38,14,14,0,0,1,10,24Zm10,5h3v2h2V29h2a1,1,0,0,0,1-1V24a1,1,0,0,0-1-1H22V21h6V19H25V17H23v2H21a1,1,0,0,0-1,1v4a1,1,0,0,0,1,1h5v2H20Zm-8,5.57a15.91,15.91,0,0,1,0-21.14L7.76,9.17a22,22,0,0,0,0,29.66ZM40.24,9.17,36,13.43a15.91,15.91,0,0,1,0,21.14l4.26,4.26a22,22,0,0,0,0-29.66ZM34.57,36a15.91,15.91,0,0,1-21.14,0L9.17,40.24a22,22,0,0,0,29.66,0Z" fill="#c2c5ce" class="color000000 svgShape"></path>
</svg>
