<svg xmlns="http://www.w3.org/2000/svg" xml:space="preserve" id="netko-coin" x="0" y="0" version="1.1" viewBox="0 0 128 128">
  <path fill="#C64A27" d="M64 128C28.7 128 0 99.3 0 64S28.7 0 64 0s64 28.7 64 64-28.7 64-64 64z" style="fill:#c64a27"></path>
  <path fill="#D35127" d="M64 120.1c-32 0-58.1-26-58.1-58.1S32 4 64 4s58.1 26 58.1 58.1-26.1 58-58.1 58z" style="fill:#d35127"></path>
  <path fill="#F16924" d="M64 8c29.8 0 54.1 24.3 54.1 54.1S93.8 116.2 64 116.2 9.9 91.9 9.9 62.1 34.2 8 64 8m0-8C29.7 0 1.9 27.8 1.9 62.1s27.8 62.1 62.1 62.1 62.1-27.8 62.1-62.1S98.3 0 64 0z" style="fill:#f16924"></path>
  <path d="M64 128C28.7 128 0 99.3 0 64S28.7 0 64 0s64 28.7 64 64-28.7 64-64 64z" style="fill:#9ea037"></path>
  <path fill="#B0B736" d="M64 120.1c-32 0-58.1-26-58.1-58.1S32 4 64 4s58.1 26 58.1 58.1-26.1 58-58.1 58z" style="fill:#b0b736"></path>
  <path d="M64 8c29.8 0 54.1 24.3 54.1 54.1S93.8 116.2 64 116.2 9.9 91.9 9.9 62.1 34.2 8 64 8m0-8C29.7 0 1.9 27.8 1.9 62.1s27.8 62.1 62.1 62.1 62.1-27.8 62.1-62.1S98.3 0 64 0z" style="fill:#cddc2a"></path>
  <path d="M13.6 65.6c0-29.7 24.2-54 54-54 13.9 0 26.6 5.3 36.2 13.9C94 14.7 79.7 7.7 63.8 7.7c-29.7 0-54 24.2-54 54 0 15.9 6.9 30.1 17.8 40-8.8-9.4-14-22.2-14-36.1z" style="fill:#9ea037"></path>
  <path d="M66 74.8c0 4.6-3.7 8.3-8.4 8.5-4.5.2-8.8-3.6-9.2-8.1-.1-.8 0-1.6 0-2.4 0-6.4-2-8.5-8.4-8.5-5.5-.1-8.3-1.8-9.9-5.9-1.4-3.6-.5-6.8 2-9.3 2.4-2.5 5.6-3.1 9.1-2 3.6 1.2 5.4 3.9 5.8 7.5.1.7 0 1.4 0 2 0 6.6 2.3 8.9 8.9 9 6.5.1 10.1 3.5 10.1 9.2zM67.9 56.2c.2-5.7 3.5-9.1 8.1-9.4 4.4-.2 8.3 3.1 8.9 7.6 1.3 10.2 1.3 10.2 11.4 11.5 4.9.7 8.1 4.5 7.7 9.5-.3 4.4-4.3 7.9-8.7 7.8-4.7-.2-8.1-3.8-8.3-8.6v-2.7c-.2-4.9-2.9-7.6-7.9-7.7-4 0-7.8-.4-9.9-4.4-.8-1.5-1.1-3.1-1.3-3.6z" style="fill:#9ea037"></path>
  <path d="M85 74.6c0 3.9-2.9 7.5-6.7 8.2-1.8.3-3.6.2-5.4.3-4.1.3-6.6 2.9-6.9 6.9-.1 1.7-.1 3.4-.3 5.1-.7 4.4-4.7 7.4-9 7-4.5-.4-8-4.2-7.9-8.6 0-4.4 3.4-8 7.8-8.4H58c7.9-.2 10-2.3 10.1-10.2 0-6.4 5.3-10.4 11.2-8.5 3.4 1.1 5.7 4.4 5.7 8.2zM57.3 63.9c-4.6-.1-8.2-3.4-8.6-8-.3-4.6 3-8.5 7.8-9.1 1.3-.2 2.7 0 4.1-.1 4.1-.2 6.7-2.6 7.2-6.7.2-1.6 0-3.2.2-4.7.5-4.8 4.3-7.9 9.1-7.6 4.2.2 7.7 4 7.8 8.3.1 4.7-3.3 8.4-8.1 8.8-.8.1-1.6 0-2.4 0-6 .1-8.6 2.7-8.5 8.8.1 6.3-3.3 10.4-8.6 10.3z" style="fill:#9ea037"></path>
  <path d="M63.1 71.9c0 4.6-3.7 8.3-8.4 8.5-4.5.2-8.8-3.6-9.2-8.1-.1-.8 0-1.6 0-2.4 0-6.4-2-8.5-8.4-8.5-5.5-.1-8.3-1.8-9.9-5.9-1.4-3.6-.5-6.8 2-9.3 2.4-2.5 5.6-3.1 9.1-2 3.6 1.2 5.4 3.9 5.8 7.5.1.7 0 1.4 0 2 0 6.6 2.3 8.9 8.9 9 6.5.1 10.1 3.5 10.1 9.2zM65 53.2c.2-5.7 3.5-9.1 8.1-9.4 4.4-.2 8.3 3.1 8.9 7.6 1.3 10.2 1.3 10.2 11.4 11.5 4.9.7 8.1 4.5 7.7 9.5-.3 4.4-4.3 7.9-8.7 7.8-4.7-.2-8.1-3.8-8.3-8.6v-2.7c-.2-4.9-2.9-7.6-7.9-7.7-4 0-7.8-.4-9.9-4.4-.8-1.4-1.1-3-1.3-3.6z" style="fill:#cddc2a"></path>
  <path d="M82.1 71.7c0 3.9-2.9 7.5-6.7 8.2-1.8.3-3.6.2-5.4.3-4.1.3-6.6 2.9-6.9 6.9-.1 1.7-.1 3.4-.3 5.1-.7 4.4-4.7 7.4-9 7-4.5-.4-8-4.2-7.9-8.6 0-4.4 3.4-8 7.8-8.4h1.4c7.8-.1 9.9-2.3 9.9-10.2 0-6.4 5.3-10.4 11.2-8.5 3.6 1.1 5.9 4.4 5.9 8.2zM54.4 61c-4.6-.1-8.2-3.4-8.6-8-.3-4.6 3-8.5 7.8-9.1 1.3-.2 2.7 0 4.1-.1 4.1-.2 6.7-2.6 7.2-6.7.2-1.6 0-3.2.2-4.7.5-4.8 4.3-7.9 9.1-7.6 4.2.2 7.7 4 7.8 8.3.1 4.7-3.3 8.4-8.1 8.8-.8.1-1.6 0-2.4 0-6 .1-8.6 2.7-8.5 8.8.1 6.3-3.3 10.4-8.6 10.3z" style="fill:#cddc2a"></path>
</svg>
